<svg xmlns="http://www.w3.org/2000/svg" viewBox="0 0 31.75 7.94">
  <g aria-label="ipynbviewer">
    <path d="M1.52 6.2q-.22 0-.33-.14-.1-.13-.1-.4l.02-.35q.02-.23.08-.55l.13-.75.18-.97-.25-.37q.16-.14.36-.23.2-.09.36-.09.17 0 .24.09.08.09.08.29l-.04.22-.08.41-.1.54-.12.6-.08.59q-.03.27-.03.5 0 .14.03.23.03.1.08.16-.2.21-.43.21zm.41-4.31q-.18 0-.3-.11t-.12-.3q0-.14.08-.26.07-.12.2-.19.12-.06.26-.06.19 0 .3.1.12.11.12.29 0 .15-.07.27-.08.12-.2.19-.12.07-.27.07zM4.26 6.04q-.24 0-.47-.05-.03-.07-.04-.16l-.02-.2q.54 0 .94-.22.4-.22.63-.61.22-.4.22-.92 0-.38-.13-.59-.14-.21-.38-.21-.25 0-.46.28-.22.28-.4.8-.16.53-.3 1.27l.09-2.31.32.22q.17-.47.45-.73t.61-.26q.29 0 .5.18.22.18.33.5.12.33.12.77 0 .48-.15.89-.15.41-.42.71t-.64.47q-.36.17-.8.17zm-.82 1.23q-.2 0-.3-.15-.1-.14-.1-.44l.03-.46.1-.83.15-1.1.18-1.25-.25-.37q.17-.14.36-.23.2-.09.36-.09.18 0 .24.09.08.08.08.28 0 .16-.05.45l-.13.68-.15.84q-.08.45-.13.93-.05.49-.05.98 0 .15.03.26.04.12.1.2-.1.1-.22.15-.12.06-.25.06zM7.02 7.27q-.36 0-.54-.16-.18-.15-.18-.41 0-.12.05-.24t.1-.19q.06.09.14.17.08.08.2.13.13.05.32.05.18 0 .4-.09.22-.09.46-.28.25-.18.48-.48.22-.3.4-.71.19-.42.3-.96.1-.54.1-1.22v-.17l-.01-.17q.11-.1.22-.14.1-.05.2-.05.15 0 .25.1t.1.33q0 .43-.1.93-.09.5-.27 1-.18.5-.44.96-.25.46-.58.82-.34.36-.73.57-.4.2-.87.2zm1.22-1.08q-.34 0-.54-.15-.19-.16-.28-.43-.09-.27-.12-.6l-.03-.7q0-.36-.02-.7-.01-.34-.08-.62-.06-.28-.22-.45.2-.19.44-.19.23 0 .36.15.13.15.18.4.06.25.07.57L8 4.1v.65q.02.3.08.56.05.25.18.4.13.15.37.15zM11.04 6.2q-.23 0-.33-.14-.1-.13-.1-.4l.03-.42q.03-.29.1-.66l.13-.78.15-.76-.24-.37q.15-.13.34-.22.2-.08.36-.08.18 0 .25.09.08.08.08.28 0 .16-.05.36-.04.19-.1.35l.05.03q.28-.57.62-.85.35-.28.76-.28.33 0 .49.2.16.2.16.6 0 .27-.05.57-.05.3-.13.6l-.12.64q-.05.32-.05.63 0 .27.09.4-.2.2-.4.2-.23 0-.34-.13-.1-.13-.1-.4 0-.25.05-.55l.11-.62.12-.58q.04-.27.04-.47 0-.22-.07-.32-.06-.1-.2-.1-.2 0-.39.13-.18.14-.35.39-.17.24-.3.57-.14.33-.21.7-.08.38-.08.78 0 .27.08.4-.2.2-.4.2zM15.3 6.2q-.24 0-.4-.09-.18-.08-.26-.27-.1-.2-.1-.54 0-.2.04-.5.03-.3.1-.73l.14-.95.2-1.15-.25-.36q.15-.15.35-.23.2-.1.36-.1.17 0 .25.1.07.07.07.27 0 .21-.1.65l-.2.99.05.03q.19-.46.47-.71.3-.26.63-.26.3 0 .5.18.22.17.33.48.12.31.12.74 0 .52-.17.97-.17.44-.48.78-.32.33-.74.51t-.91.18zm-.12-.48q.35-.02.66-.17.3-.15.53-.4.23-.25.35-.57.13-.33.13-.7 0-.38-.13-.59-.14-.21-.38-.21-.22 0-.43.19-.21.18-.38.53-.16.35-.26.84-.1.48-.1 1.08z"/>
    <path d="M19.32 4.18q-.16 0-.25-.08-.08-.06-.12-.24-.03-.17-.03-.47v-.45l-.01-.42q-.01-.2-.06-.37-.04-.16-.14-.28.1-.1.24-.1.14 0 .21.12.08.11.1.37.04.26.04.7V3.85h.03q.27-.44.44-.76.16-.32.24-.54.07-.23.07-.36 0-.18-.07-.32l.15-.07.12-.02q.09 0 .14.08.05.07.05.2 0 .12-.05.29-.05.17-.15.4l-.25.51-.35.64.05.11q-.04.05-.1.09-.07.04-.15.05-.08.03-.15.03zM21.2 4.18q-.1 0-.16-.07-.06-.06-.06-.2l.01-.22.05-.34.09-.5.14-.72-.15-.19q.08-.08.19-.12.1-.04.19-.04.1 0 .13.04.05.05.05.17l-.03.13-.05.27-.08.36-.07.4-.05.39-.02.33v.12l.06.08q-.11.1-.23.1zm.3-2.73q-.1 0-.17-.06-.06-.06-.06-.16 0-.07.04-.14.03-.06.1-.1.07-.04.15-.04.11 0 .17.06.07.05.07.15 0 .08-.04.15-.04.07-.1.1-.07.04-.16.04zM22.94 4.18q-.35 0-.55-.25-.2-.25-.2-.69 0-.32.09-.58.09-.27.25-.47.16-.2.38-.3.22-.11.48-.11t.4.14q.16.15.16.4 0 .28-.17.48-.17.19-.5.29-.32.1-.78.1l.04-.21q.5 0 .77-.17.27-.18.27-.5 0-.13-.07-.2-.06-.09-.18-.09-.15 0-.28.1-.13.1-.24.26-.1.17-.15.4-.06.23-.06.48 0 .3.1.48t.27.18q.22 0 .35-.16.14-.15.15-.42.13 0 .2.06.07.05.07.17 0 .16-.1.3-.11.13-.3.22-.17.09-.4.09zM24.8 4.18q-.15 0-.2-.1-.05-.1-.05-.39v-.54-.5q-.02-.25-.06-.44-.05-.2-.15-.34.1-.1.23-.1.14 0 .22.12.07.11.1.37t.03.7V3.85h.03q.22-.32.36-.6.14-.29.21-.5.08-.22.1-.34l.04-.14q0-.04-.03-.1l-.06-.1-.04-.08.12-.07q.05-.03.1-.03.1 0 .15.08.05.07.05.2t-.04.29l-.13.34-.22.46q-.13.28-.24.46-.1.18-.19.28-.08.1-.17.14-.08.04-.17.04zm1.14 0q-.12 0-.19-.07t-.1-.19l-.03-.28-.1-1.65q.04-.05.1-.07.06-.03.13-.03l.08.23.06 1.73h.03q.23-.44.37-.76.14-.32.2-.54.07-.23.07-.36 0-.18-.06-.32l.14-.07.12-.02q.09 0 .13.08.05.07.05.2 0 .12-.04.29-.04.17-.12.4l-.22.51-.3.64.05.11q-.04.05-.1.09-.06.04-.14.05-.06.03-.13.03zM28.13 4.18q-.35 0-.55-.25-.2-.25-.2-.69 0-.32.09-.58.09-.27.25-.47.16-.2.38-.3.22-.11.48-.11t.4.14q.16.15.16.4 0 .28-.17.48-.17.19-.5.29-.31.1-.78.1l.04-.21q.5 0 .77-.17.28-.18.28-.5 0-.13-.07-.2-.07-.09-.19-.09-.15 0-.28.1-.13.1-.23.26-.1.17-.16.4t-.06.48q0 .3.1.48t.27.18q.22 0 .35-.16.14-.15.15-.42.13 0 .2.06.07.05.07.17 0 .16-.1.3-.11.13-.3.22-.17.09-.4.09zM29.85 4.18q-.12 0-.17-.08-.06-.08-.06-.24l.02-.27.07-.43.1-.5.1-.5-.15-.19.17-.13q.09-.05.16-.05.1 0 .14.07.04.06.04.14 0 .13-.04.28l-.1.3.04.03q.1-.29.21-.47.11-.19.22-.28.11-.09.22-.09.1 0 .16.06t.06.17q0 .13-.09.2-.08.08-.22.08-.13 0-.26.14-.13.13-.23.36-.1.22-.16.5-.06.3-.06.59 0 .14.04.2-.1.1-.21.1z"/>
  </g>
</svg>
